<svg xmlns="http://www.w3.org/2000/svg" viewBox="0 0 32 32" fill="currentColor">
  <path d="M6.5 24.5h2.2l0.3-3.8c0-0.1 0.1-0.2 0.1-0.3l3.5-5.2c0.3-0.5 0.8-0.8 1.3-0.9l4.8-0.8c0.6-0.1 1.2 0.1 1.6 0.5l2.8 2.8c0.3 0.3 0.7 0.5 1.1 0.5h3.3c0.8 0 1.5 0.7 1.5 1.5v0c0 0.8-0.7 1.5-1.5 1.5H24l-0.5 0.5c-0.3 0.3-0.7 0.5-1.1 0.5H8.5c-0.1 0-0.2 0-0.3 0L6.5 24.5z"/>
  <path d="M9.2 25.5H6c-0.6 0-1 0.4-1 1s0.4 1 1 1h21.5c0.6 0 1-0.4 1-1s-0.4-1-1-1H9.2z"/>
  <path d="M12 10.5c0.3-0.8 0.8-1.5 1.5-2c0.7-0.5 1.5-0.8 2.3-0.8c0.3 0 0.5-0.2 0.5-0.5s-0.2-0.5-0.5-0.5c-1 0-2 0.3-2.8 1c-0.8 0.6-1.5 1.5-1.8 2.5-0.1 0.3 0 0.5 0.3 0.6 0.3 0.1 0.5 0 0.5-0.3z"/>
</svg>
